. 
 
http://www.torrenting.com          :     Once & For all ;)


               www . Torrenting . Com 

(((((((((((((= Enjoy No RAR releases =))))))))))))))))))))


...................................NFO:....................................

.UUUUUUUU     UUUUUUUU           SSSSSSSSSSSSSSS         MMMMMMMM               MMMMMMMM     
U::::::U     U::::::U         SS:::::::::::::::S        M:::::::M             M:::::::M     
U::::::U     U::::::U        S:::::SSSSSS::::::S        M::::::::M           M::::::::M     
UU:::::U     U:::::UU        S:::::S     SSSSSSS        M:::::::::M         M:::::::::M     
 U:::::U     U:::::U         S:::::S                    M::::::::::M       M::::::::::M     
 U:::::D     D:::::U         S:::::S                    M:::::::::::M     M:::::::::::M     
 U:::::D     D:::::U          S::::SSSS                 M:::::::M::::M   M::::M:::::::M     
 U:::::D     D:::::U           SS::::::SSSSS            M::::::M M::::M M::::M M::::::M     
 U:::::D     D:::::U             SSS::::::::SS          M::::::M  M::::M::::M  M::::::M     
 U:::::D     D:::::U                SSSSSS::::S         M::::::M   M:::::::M   M::::::M     
 U:::::D     D:::::U                     S:::::S        M::::::M    M:::::M    M::::::M     
 U::::::U   U::::::U                     S:::::S        M::::::M     MMMMM     M::::::M     
 U:::::::UUU:::::::U         SSSSSSS     S:::::S        M::::::M               M::::::M     
  UU:::::::::::::UU   ...... S::::::SSSSSS:::::S ...... M::::::M               M::::::M     
    UU:::::::::UU     .::::. S:::::::::::::::SS  .::::. M::::::M               M::::::M     
      UUUUUUUUU       ......  SSSSSSSSSSSSSSS    ...... MMMMMMMM               MMMMMMMM   



                       Moneyball 2011 R5 CAM AUDIO READNFO XViD - U.S.M


SOURCES:

Chelovek.kotoryj.izmenil.vsjo.2011.D.DVD9
YebacEC88

IMDB:
 
http://www.imdb.com/title/tt1210166/

Video
ID                               : 0
Format                           : MPEG-4 Visual
Format profile                   : Advanced Simple@L5
Format settings, BVOP            : 2
Format settings, QPel            : No
Format settings, GMC             : No warppoints
Format settings, Matrix          : Default (MPEG)
Muxing mode                      : Packed bitstream
Codec ID                         : XVID
Codec ID/Hint                    : XviD
Duration                         : 2h 7mn
Bit rate                         : 2 161 Kbps
Width                            : 720 pixels
Height                           : 384 pixels
Display aspect ratio             : 1.875
Frame rate                       : 25.000 fps
Color space                      : YUV
Chroma subsampling               : 4:2:0
Bit depth                        : 8 bits
Scan type                        : Progressive
Compression mode                 : Lossy
Bits/(Pixel*Frame)               : 0.313
Stream size                      : 1.93 GiB (94%)
Writing library                  : XviD 64

Audio
ID                               : 1
Format                           : MPEG Audio
Format version                   : Version 1
Format profile                   : Layer 3
Codec ID                         : 55
Codec ID/Hint                    : MP3
Duration                         : 2h 7mn
Bit rate mode                    : Constant
Bit rate                         : 128 Kbps
Channel(s)                       : 2 channels
Sampling rate                    : 44.1 KHz
Compression mode                 : Lossy
Stream size                      : 117 MiB (6%)
Alignment                        : Split accross interleaves
Interleave, duration             : 40 ms (1.00 video frame)
Interleave, preload duration     : 500 ms


WORKDONE:

Right for this we used the dvd9 ...so we had to strip all the crap off it and then tweak it.
We used crop,resize,heavy noise filter,sharpen,brightness,contrast and finally tweaked the rgb colours.
Now the audio we stripped off EC88's release and then dropped in AA and totally remastered it ...running
several filtering apps to remove as much noise,hiss we could...then totally changed the EQ,which also 
helped by lowering certain channels that contain more noise.
Now for the readnfo ....audio is still poo really,but alot better than before and it won't make no difference
dropping it into the centre channel of the 5.1 track and making a custom track ....also noticed some slight
oos in parts when scrolling through EC88 releases,but haven't fixed as thet didn't last for long and seem to slip then 
kick back in so there was no way i was cutting it up to 100 of pieces to fix minor slips lol.....will leave that for 
someone else :P
Overall if your not too fussy ....then this will do,but otherwise best to wait for a brrip to drop.
Check sample for Q.

SCREENIES:

[IMG]http://i.imgur.com/Ix9rN.png[/IMG]
[IMG]http://i.imgur.com/Muy75.png[/IMG]
[IMG]http://i.imgur.com/KMloj.png[/IMG]
[IMG]http://i.imgur.com/XD0eZ.png[/IMG]
[IMG]http://i.imgur.com/FGqh8.png[/IMG]